<svg xmlns="http://www.w3.org/2000/svg" viewBox="0 0 512 512"><path fill="#fff" d="M459.63,209.76h-.37c-10.3,0-19.41-6.59-22.75-16.33-2.47-7.18-5.35-14.17-8.62-20.94-4.47-9.25-2.69-20.3,4.57-27.57l.22-.21c14.38-14.38,14.38-37.69,0-52.07l-13.32-13.32c-14.38-14.38-37.69-14.38-52.07,0l-.02.02c-7.29,7.29-18.39,9.05-27.65,4.53-6.82-3.33-13.88-6.26-21.13-8.77-9.7-3.36-16.25-12.45-16.25-22.73s-4.12-19.37-10.79-26.03c-6.66-6.66-15.87-10.78-26.03-10.78h-18.84c-20.33,0-36.82,16.48-36.82,36.81,0,5.14-1.64,9.98-4.49,13.96-2.85,3.98-6.91,7.09-11.76,8.77-7.25,2.51-14.31,5.44-21.13,8.77-9.26,4.52-20.36,2.76-27.65-4.53l-.02-.02c-14.38-14.38-37.69-14.38-52.07,0l-13.32,13.32c-14.38,14.38-14.38,37.69,0,52.07l.22.21c7.26,7.27,9.04,18.32,4.57,27.57-3.27,6.77-6.15,13.76-8.62,20.94-3.34,9.74-12.45,16.33-22.75,16.33h-.37c-20.33,0-36.81,16.49-36.81,36.82v18.84c0,20.33,16.48,36.81,36.81,36.81h.75c10.26,0,19.33,6.53,22.71,16.21,2.47,7.07,5.34,13.94,8.59,20.6,4.53,9.27,2.77,20.38-4.52,27.67l-.58.58c-14.38,14.38-14.38,37.69,0,52.06l13.32,13.33c14.38,14.37,37.69,14.37,52.07,0l.77-.78c7.27-7.27,18.33-9.04,27.59-4.56,6.6,3.19,13.41,6.01,20.41,8.43,9.72,3.37,16.28,12.45,16.28,22.74v1.12c0,20.33,16.49,36.81,36.82,36.81h18.84c20.33,0,36.82-16.48,36.82-36.81v-1.12c0-10.29,6.56-19.37,16.28-22.74,7-2.42,13.81-5.24,20.41-8.43,9.26-4.48,20.32-2.71,27.59,4.56l.77.78c14.38,14.37,37.69,14.37,52.07,0l13.32-13.33c14.38-14.37,14.38-37.68,0-52.06l-.58-.58c-7.29-7.29-9.05-18.4-4.52-27.67,3.25-6.66,6.12-13.53,8.59-20.6,3.38-9.68,12.45-16.21,22.71-16.21h.75c20.33,0,36.81-16.48,36.81-36.81v-18.84c0-20.33-16.48-36.82-36.81-36.82Z"/><path fill="navy" d="M459.63,194.76h-.37c-3.85,0-7.29-2.49-8.57-6.21-2.64-7.69-5.77-15.29-9.29-22.59-1.69-3.5-1.05-7.64,1.59-10.36l.3-.29c9.78-9.79,15.17-22.8,15.17-36.64s-5.39-26.85-15.17-36.64l-12.68-12.68c-9.9-9.9-23.26-15.81-37.26-15.82-13.86,0-26.87,5.39-36.69,15.2-2.72,2.72-6.92,3.38-10.46,1.66-7.33-3.59-15.01-6.77-22.8-9.47-3.68-1.27-6.16-4.71-6.16-8.55,0-13.85-5.4-26.87-15.18-36.64-9.79-9.79-22.8-15.17-36.64-15.17h-18.84c-28.57,0-51.82,23.24-51.82,51.81,0,1.88-.58,3.68-1.69,5.22-1.11,1.55-2.65,2.7-4.47,3.33-7.79,2.7-15.47,5.88-22.8,9.47-3.54,1.72-7.74,1.06-10.48-1.68-9.79-9.79-22.8-15.18-36.65-15.18-6.49,0-12.8,1.19-18.68,3.46-10.08,3.89-12.73,16.94-5.09,24.58h0c4.19,4.18,10.44,5.52,15.96,3.4,2.46-.94,5.1-1.44,7.81-1.44,5.83,0,11.31,2.27,15.45,6.41,11.78,11.77,29.79,14.75,44.84,7.41,6.25-3.06,12.8-5.77,19.46-8.08,7.72-2.67,14.3-7.59,19.04-14.21,4.82-6.71,7.34-14.63,7.3-22.88-.06-11.99,9.97-21.62,21.96-21.62h18.7c5.83,0,11.3,2.26,15.43,6.39,4.12,4.11,6.39,9.59,6.39,15.42,0,16.61,10.59,31.44,26.34,36.9,6.66,2.31,13.21,5.02,19.46,8.08,15.04,7.34,33.06,4.37,44.86-7.43,4.13-4.13,9.63-6.4,15.48-6.39s11.58,2.6,15.77,6.79l12.92,12.92c4.13,4.12,6.39,9.6,6.39,15.43s-2.23,11.22-6.29,15.34l-.32.31c-11.72,11.73-14.72,29.69-7.47,44.69,3.01,6.23,5.68,12.72,7.94,19.28,5.43,15.83,20.27,26.47,36.94,26.47h.37c12.03,0,21.81,9.78,21.81,21.82v18.84c0,12.05-9.76,21.81-21.81,21.81h-.75c-16.57,0-31.39,10.55-36.87,26.26-2.25,6.44-4.91,12.82-7.91,18.96-7.35,15.06-4.38,33.08,7.39,44.86l.17.17c4.19,4.19,6.78,9.83,6.8,15.75.02,5.85-2.24,11.37-6.39,15.51l-13.31,13.33c-8.51,8.5-22.36,8.5-30.8.07l-.83-.85c-11.73-11.73-29.71-14.73-44.73-7.46-6.1,2.95-12.42,5.56-18.79,7.76-15.77,5.47-26.37,20.31-26.37,36.92v1.12c0,12.02-9.79,21.81-21.82,21.81h-18.84c-12.03,0-21.82-9.79-21.82-21.81v-1.12c0-16.61-10.6-31.45-26.38-36.92-6.36-2.2-12.68-4.81-18.78-7.76-5.46-2.64-11.31-3.93-17.11-3.93-10.16,0-20.18,3.95-27.68,11.46l-.7.71c-8.51,8.5-22.36,8.5-30.86,0l-12.92-12.92c-4.2-4.2-6.79-9.86-6.79-15.8,0-5.84,2.25-11.33,6.39-15.46l.58-.58c11.77-11.78,14.74-29.8,7.39-44.85-3-6.15-5.66-12.53-7.91-18.97-5.48-15.71-20.3-26.26-36.87-26.26h-.75c-12.05,0-21.81-9.76-21.81-21.81v-18.84c0-12.04,9.78-21.82,21.81-21.82h.37c16.67,0,31.51-10.64,36.93-26.45,2.27-6.58,4.94-13.07,7.94-19.3,7.26-15,4.26-32.96-7.46-44.69l-.32-.31c-4.06-4.12-6.29-9.56-6.29-15.34,0-2.72.49-5.37,1.44-7.83,2.12-5.52.78-11.77-3.41-15.96h0c-7.64-7.64-20.68-4.98-24.57,5.1-2.27,5.88-3.46,12.19-3.46,18.69,0,13.84,5.39,26.85,15.17,36.64l.3.29c2.64,2.72,3.28,6.86,1.59,10.36-3.52,7.3-6.65,14.9-9.3,22.6-1.27,3.71-4.71,6.2-8.56,6.2h-.37c-28.57,0-51.81,23.24-51.81,51.82v18.84c0,28.61,23.2,51.81,51.81,51.81h.75c3.83,0,7.26,2.47,8.55,6.15,2.64,7.55,5.76,15.03,9.27,22.24,1.74,3.55,1.07,7.76-1.65,10.48l-.08.08c-8.85,8.85-14.54,20.5-15.51,32.98-1.19,15.37,4.25,30.03,15.01,40.79l13.33,13.34c20.2,20.18,53.07,20.19,73.34-.07l.71-.72c2.71-2.71,6.91-3.37,10.45-1.66,7.16,3.46,14.57,6.52,22.03,9.1,3.7,1.28,6.19,4.73,6.19,8.57v1.12c0,28.61,23.2,51.81,51.81,51.81h18.86c28.61,0,51.81-23.2,51.81-51.81v-1.12c0-3.84,2.49-7.29,6.18-8.57,7.47-2.58,14.88-5.64,22.04-9.1,3.55-1.72,7.74-1.05,10.39,1.6l.84.85c20.2,20.19,53.07,20.19,73.28-.01l13.31-13.32c10.76-10.76,16.21-25.42,15.02-40.79-.96-12.48-6.65-24.14-15.51-32.99l-.08-.08c-2.72-2.72-3.39-6.93-1.65-10.49,3.51-7.2,6.63-14.68,9.27-22.23,1.29-3.68,4.72-6.15,8.55-6.15h.75c28.61,0,51.81-23.2,51.81-51.81v-18.84c0-28.58-23.24-51.82-51.81-51.82Z"/><path fill="#4097ff" d="M215.74,328l-54.09-54.09c-5.68-5.68-5.68-14.9,0-20.58l21.45-21.45c5.68-5.68,14.9-5.68,20.58,0l26.87,26.87,77.77-77.77c5.68-5.68,14.9-5.68,20.58,0l21.45,21.44c5.68,5.68,5.68,14.9,0,20.58l-104.98,104.98c-8.18,8.18-21.45,8.18-29.63,0Z"/><path fill="navy" d="M230.55,349.14c-9.6,0-18.63-3.74-25.42-10.53l-54.09-54.09c-11.52-11.52-11.52-30.27,0-41.8l21.45-21.45c5.58-5.58,13-8.66,20.9-8.66s15.32,3.08,20.9,8.66l16.27,16.27,67.16-67.16c11.52-11.52,30.27-11.52,41.8,0l21.45,21.45c5.58,5.58,8.66,13,8.66,20.9s-3.07,15.32-8.66,20.9l-104.98,104.98c-6.79,6.79-15.82,10.53-25.42,10.53ZM172.57,263.62l53.77,53.77c1.52,1.52,3.29,1.74,4.21,1.74s2.69-.23,4.21-1.74l104.67-104.67-20.82-20.82-88.06,88.06-37.17-37.17-20.82,20.82Z"/><path fill="#bbd7ff" d="M286.92,414.26c-6.84,0-13.01-4.7-14.61-11.65-1.85-8.07,3.19-16.12,11.26-17.98,10.37-2.38,26.08-7.16,42.04-16.38,7.17-4.15,16.35-1.69,20.49,5.48,4.15,7.17,1.69,16.35-5.48,20.49-19.18,11.09-37.96,16.81-50.34,19.65-1.13.26-2.26.38-3.37.38Z"/></svg>